<?xml version="1.0" standalone="no"?>
<!DOCTYPE svg PUBLIC "-//W3C//DTD SVG 20010904//EN"
 "http://www.w3.org/TR/2001/REC-SVG-20010904/DTD/svg10.dtd">
<svg version="1.0" xmlns="http://www.w3.org/2000/svg"
 width="105.000000pt" height="105.000000pt" viewBox="0 0 105.000000 105.000000"
 preserveAspectRatio="xMidYMid meet">
<metadata>
Created by potrace 1.14, written by Peter Selinger 2001-2017
</metadata>
<g transform="translate(0.000000,105.000000) scale(0.100000,-0.100000)"
fill="#000000" stroke="none">
<path d="M65 858 c0 -95 4 -179 9 -187 6 -9 5 -12 0 -8 -10 6 -13 -637 -4
-647 6 -5 69 -7 195 -6 44 0 116 1 160 1 44 -1 87 0 95 0 8 0 60 0 115 0 55 0
107 0 115 0 8 0 42 0 75 0 33 0 67 0 75 0 8 0 20 0 25 -1 23 -5 36 1 29 13 -6
8 -3 8 9 -1 9 -8 20 -11 24 -9 5 3 9 232 8 509 l0 503 -70 2 c-42 1 -75 -2
-84 -10 -12 -9 -13 -9 -7 0 9 17 -93 16 -113 -1 -11 -8 -13 -8 -7 2 5 9 -6 12
-46 12 -30 0 -60 -6 -67 -12 -11 -10 -12 -10 -7 -1 9 16 -93 16 -113 -1 -11
-8 -13 -8 -8 1 10 15 -92 16 -112 0 -12 -9 -13 -9 -7 0 9 17 -93 16 -113 -1
-11 -8 -13 -8 -8 1 10 15 -92 16 -112 0 -12 -9 -13 -9 -7 1 5 8 -1 12 -21 12
l-28 0 0 -172z m459 34 c3 -5 -1 -9 -9 -9 -8 0 -12 4 -9 9 3 4 7 8 9 8 2 0 6
-4 9 -8z m-114 -666 c0 -2 -8 -10 -17 -17 -16 -13 -17 -12 -4 4 13 16 21 21
21 13z"/>
</g>
</svg>
